<svg width="24" height="24" viewBox="0 0 24 24" fill="none" xmlns="http://www.w3.org/2000/svg">
    <path d="M12 2C6.477 2 2 6.477 2 12C2 16.991 5.657 21.128 10.438 22.279C11.063 22.394 11.25 21.993 11.25 21.643V19.121C7.691 19.787 7.031 17.725 7.031 17.725C6.513 16.491 5.766 16.089 5.766 16.089C4.719 15.457 5.858 15.473 5.858 15.473C7.029 15.565 7.635 16.644 7.635 16.644C8.685 18.247 10.427 17.787 11.298 17.449C11.41 16.739 11.739 16.279 12.102 16.015C9.21 15.745 6.177 14.811 6.177 10.625C6.177 9.463 6.638 8.512 7.662 7.774C7.535 7.437 7.126 6.361 7.798 5.027C7.798 5.027 8.772 4.673 11.25 6.231C12.147 5.942 13.115 5.797 14.077 5.792C15.039 5.797 16.007 5.942 16.906 6.231C19.382 4.673 20.354 5.027 20.354 5.027C21.027 6.361 20.618 7.437 20.491 7.774C21.517 8.512 21.975 9.463 21.975 10.625C21.975 14.824 18.936 15.741 16.034 16.003C16.489 16.331 16.906 16.975 16.906 17.964V21.643C16.906 21.997 17.091 22.402 17.725 22.279C22.5 21.124 26.152 16.991 26.152 12C26.152 6.477 21.675 2 16.152 2H12Z" fill="currentColor"/>
</svg>
